HIERARCHY
ROOT Hips
{
  OFFSET 5.72205e-005 65.662 3.42586
  CHANNELS 6 Xposition Yposition Zposition Zrotation Xrotation Yrotation
  JOINT Chest
  {
    OFFSET 0 8.7983 -4.7612
    CHANNELS 3 Zrotation Xrotation Yrotation
    JOINT Chest2
    {
      OFFSET 0 8.0291 0.4195
      CHANNELS 3 Zrotation Xrotation Yrotation
      JOINT Chest3
      {
        OFFSET 0 9.9351 -2.2114
        CHANNELS 3 Zrotation Xrotation Yrotation
        JOINT Neck
        {
          OFFSET 0 22.3885 -0.4656
          CHANNELS 3 Zrotation Xrotation Yrotation
          JOINT Head
          {
            OFFSET -0.0001 12.643 3.4389
            CHANNELS 3 Zrotation Xrotation Yrotation
            End Site
            {
              OFFSET 0.0001 17.6655 0.5274
            }
          }
        }
        JOINT LeftCollar
        {
          OFFSET 2.2603 21.606 7.4023
          CHANNELS 3 Zrotation Xrotation Yrotation
          JOINT LeftShoulder
          {
            OFFSET 13.5163 -1.1332 -5.0146
            CHANNELS 3 Zrotation Xrotation Yrotation
            JOINT LeftElbow
            {
              OFFSET -0.0995 -28.05 -0.2431
              CHANNELS 3 Zrotation Xrotation Yrotation
              JOINT LeftWrist
              {
                OFFSET 0.0679 -23.3996 -0.1402
                CHANNELS 3 Zrotation Xrotation Yrotation
                JOINT LeftFinger1
                {
                  OFFSET 0.7932 -9.069 2.5189
                  CHANNELS 3 Zrotation Xrotation Yrotation
                  JOINT LeftFinger11
                  {
                    OFFSET -0.8272 -3.3923 0.5977
                    CHANNELS 3 Zrotation Xrotation Yrotation
                    JOINT LeftFinger12
                    {
                      OFFSET -0.5649 -2.3158 0.4082
                      CHANNELS 3 Zrotation Xrotation Yrotation
                      End Site
                      {
                        OFFSET -0.4919 -1.6479 0.2673
                      }
                    }
                  }
                }
                JOINT LeftFinger2
                {
                  OFFSET 0.9159 -9.2044 0.2193
                  CHANNELS 3 Zrotation Xrotation Yrotation
                  JOINT LeftFinger21
                  {
                    OFFSET 0.0117 -4.1944 -0.0248
                    CHANNELS 3 Zrotation Xrotation Yrotation
                    JOINT LeftFinger22
                    {
                      OFFSET 0.0071 -2.3249 -0.0142
                      CHANNELS 3 Zrotation Xrotation Yrotation
                      End Site
                      {
                        OFFSET -0.1475 -2.0882 0.0028
                      }
                    }
                  }
                }
                JOINT LeftFinger3
                {
                  OFFSET 0.6113 -8.7231 -2.0637
                  CHANNELS 3 Zrotation Xrotation Yrotation
                  JOINT LeftFinger31
                  {
                    OFFSET -0.1927 -3.8059 -0.2383
                    CHANNELS 3 Zrotation Xrotation Yrotation
                    JOINT LeftFinger32
                    {
                      OFFSET -0.1091 -2.1688 -0.1362
                      CHANNELS 3 Zrotation Xrotation Yrotation
                      End Site
                      {
                        OFFSET -0.2358 -1.9176 -0.0906
                      }
                    }
                  }
                }
                JOINT LeftFinger4
                {
                  OFFSET -0.6151 -8.0947 -3.5641
                  CHANNELS 3 Zrotation Xrotation Yrotation
                  JOINT LeftFinger41
                  {
                    OFFSET -0.4882 -2.341 -0.6462
                    CHANNELS 3 Zrotation Xrotation Yrotation
                    JOINT LeftFinger42
                    {
                      OFFSET -0.3575 -1.7167 -0.4742
                      CHANNELS 3 Zrotation Xrotation Yrotation
                      End Site
                      {
                        OFFSET -0.4187 -1.5237 -0.3496
                      }
                    }
                  }
                }
                JOINT LeftFinger0
                {
                  OFFSET -1.42 -1.8761 1.4223
                  CHANNELS 3 Zrotation Xrotation Yrotation
                  JOINT LeftFinger01
                  {
                    OFFSET -1.1471 -3.4929 2.6334
                    CHANNELS 3 Zrotation Xrotation Yrotation
                    JOINT LeftFinger02
                    {
                      OFFSET -0.823 -2.3 1.6571
                      CHANNELS 3 Zrotation Xrotation Yrotation
                      End Site
                      {
                        OFFSET -0.5822 -1.6914 1.1582
                      }
                    }
                  }
                }
              }
            }
          }
        }
        JOINT RightCollar
        {
          OFFSET -2.2603 21.606 7.4023
          CHANNELS 3 Zrotation Xrotation Yrotation
          JOINT RightShoulder
          {
            OFFSET -13.5187 -1.1334 -5.0155
            CHANNELS 3 Zrotation Xrotation Yrotation
            JOINT RightElbow
            {
              OFFSET 0.0994 -28.0499 -0.2431
              CHANNELS 3 Zrotation Xrotation Yrotation
              JOINT RightWrist
              {
                OFFSET -0.0679 -23.3996 -0.1402
                CHANNELS 3 Zrotation Xrotation Yrotation
                JOINT RightFinger1
                {
                  OFFSET -0.7932 -9.0691 2.5189
                  CHANNELS 3 Zrotation Xrotation Yrotation
                  JOINT RightFinger11
                  {
                    OFFSET 0.8272 -3.3923 0.5977
                    CHANNELS 3 Zrotation Xrotation Yrotation
                    JOINT RightFinger12
                    {
                      OFFSET 0.565 -2.3158 0.4082
                      CHANNELS 3 Zrotation Xrotation Yrotation
                      End Site
                      {
                        OFFSET 0.4919 -1.6479 0.2673
                      }
                    }
                  }
                }
                JOINT RightFinger2
                {
                  OFFSET -0.916 -9.2044 0.2193
                  CHANNELS 3 Zrotation Xrotation Yrotation
                  JOINT RightFinger21
                  {
                    OFFSET -0.0117 -4.1944 -0.0248
                    CHANNELS 3 Zrotation Xrotation Yrotation
                    JOINT RightFinger22
                    {
                      OFFSET -0.0071 -2.3249 -0.0142
                      CHANNELS 3 Zrotation Xrotation Yrotation
                      End Site
                      {
                        OFFSET 0.1475 -2.0882 0.0028
                      }
                    }
                  }
                }
                JOINT RightFinger3
                {
                  OFFSET -0.6113 -8.7231 -2.0637
                  CHANNELS 3 Zrotation Xrotation Yrotation
                  JOINT RightFinger31
                  {
                    OFFSET 0.1927 -3.8059 -0.2383
                    CHANNELS 3 Zrotation Xrotation Yrotation
                    JOINT RightFinger32
                    {
                      OFFSET 0.1091 -2.1688 -0.1362
                      CHANNELS 3 Zrotation Xrotation Yrotation
                      End Site
                      {
                        OFFSET 0.2358 -1.9176 -0.0906
                      }
                    }
                  }
                }
                JOINT RightFinger4
                {
                  OFFSET 0.6151 -8.0947 -3.564
                  CHANNELS 3 Zrotation Xrotation Yrotation
                  JOINT RightFinger41
                  {
                    OFFSET 0.4882 -2.341 -0.6462
                    CHANNELS 3 Zrotation Xrotation Yrotation
                    JOINT RightFinger42
                    {
                      OFFSET 0.3574 -1.7166 -0.4742
                      CHANNELS 3 Zrotation Xrotation Yrotation
                      End Site
                      {
                        OFFSET 0.4187 -1.5237 -0.3496
                      }
                    }
                  }
                }
                JOINT RightFinger0
                {
                  OFFSET 1.4199 -1.8761 1.4221
                  CHANNELS 3 Zrotation Xrotation Yrotation
                  JOINT RightFinger01
                  {
                    OFFSET 1.1472 -3.4929 2.6336
                    CHANNELS 3 Zrotation Xrotation Yrotation
                    JOINT RightFinger02
                    {
                      OFFSET 0.8229 -2.3 1.6571
                      CHANNELS 3 Zrotation Xrotation Yrotation
                      End Site
                      {
                        OFFSET 0.5822 -1.6914 1.1582
                      }
                    }
                  }
                }
              }
            }
          }
        }
      }
    }
  }
  JOINT RightHip
  {
    OFFSET -9.412 3.9771 -0.7758
    CHANNELS 3 Zrotation Xrotation Yrotation
    JOINT RightKnee
    {
      OFFSET -0.7531 -40.938 0
      CHANNELS 3 Zrotation Xrotation Yrotation
      JOINT RightAnkle
      {
        OFFSET 0 -40.1986 0
        CHANNELS 3 Zrotation Xrotation Yrotation
        JOINT RightToe
        {
          OFFSET 0 -4.4182 9.239
          CHANNELS 3 Zrotation Xrotation Yrotation
          End Site
          {
            OFFSET 0 0 6.1981
          }
        }
      }
    }
  }
  JOINT LeftHip
  {
    OFFSET 9.4119 3.9773 -0.7758
    CHANNELS 3 Zrotation Xrotation Yrotation
    JOINT LeftKnee
    {
      OFFSET 0.7532 -40.9383 0
      CHANNELS 3 Zrotation Xrotation Yrotation
      JOINT LeftAnkle
      {
        OFFSET 0 -40.1986 0
        CHANNELS 3 Zrotation Xrotation Yrotation
        JOINT LeftToe
        {
          OFFSET 0 -4.4182 9.239
          CHANNELS 3 Zrotation Xrotation Yrotation
          End Site
          {
            OFFSET 0 0 6.1981
          }
        }
      }
    }
  }
}
MOTION
Frames:	4
Frame Time:	0.0333333
1.63372 40.6095 1.20182 8.30759e-008 31.8741 -9.83602e-009 0.247119 -3.0661 -0.27493 0.480511 -6.13329 -0.537751 0.480513 -6.13331 -0.537753 6.56954 18.5692 0.121976 1.04821 6.15909 9.14559 -22.1824 -18.2263 -49.732 37.9531 25.8121 -37.0631 -15.892 -31.3999 -7.37527 21.247 -19.9248 41.1648 1.76556e-031 -3.18055e-015 3.18055e-015 -1.76556e-031 -3.18055e-015 -3.18055e-015 -0 -3.18055e-015 -0 1.76556e-031 -3.18055e-015 3.18055e-015 -0.0128362 0.0023302 8.5726e-005 4.26919e-006 -1.3079e-006 -5.01046e-006 1.76556e-031 -3.18055e-015 3.18055e-015 -0.0160311 0.00299284 0.00084761 -3.18055e-015 1.27222e-014 -0 1.76556e-031 -3.18055e-015 3.18055e-015 -0.0125389 0.00311346 0.00280857 -5.29669e-031 -9.54166e-015 -3.18055e-015 1.76556e-031 -3.18055e-015 3.18055e-015 -1.76556e-031 -3.18055e-015 -3.18055e-015 -0 -3.18055e-015 -0 3.71955 13.5521 32.922 -38.653 31.5826 -21.0458 84.5063 -50.0935 54.7198 -30.7263 -18.4205 -25.0392 7.95139e-016 0 -3.97569e-015 7.95139e-016 -9.54166e-015 -3.18055e-015 1.59028e-015 6.36111e-015 -2.38542e-015 7.95139e-016 0 -3.97569e-015 0.0129425 0.00231994 -9.10654e-005 1.4002e-006 8.23647e-008 -4.52792e-006 7.95139e-016 0 -3.97569e-015 0.016346 0.00304514 -0.00087884 2.38542e-015 -6.36111e-015 1.59028e-015 7.95139e-016 0 -3.97569e-015 0.0145908 0.00368335 -0.00326613 7.95139e-016 6.36111e-015 7.95139e-016 7.95139e-016 0 -3.97569e-015 7.95139e-016 -9.54166e-015 -3.18055e-015 1.59028e-015 6.36111e-015 -2.38542e-015 -60.0944 -16.7684 -21.9648 -179.072 86.7793 177.833 45.5743 36.428 -53.0719 1.97251e-006 2.95656e-006 2.7874e-006 60.074 -16.7826 21.9405 179.385 86.7747 -178.152 -45.6109 36.4115 53.0865 -1.97182e-006 8.00703e-007 -2.78791e-006 
1.63371 40.6828 1.01015 1.8899e-008 32.2496 1.85367e-007 0.247757 -3.15614 -0.274286 0.481453 -6.31342 -0.536101 0.481452 -6.31342 -0.536101 6.88318 18.5491 0.129091 1.0366 6.40533 9.21594 -22.3538 -18.1204 -49.7584 38.1281 25.806 -37.1255 -15.8862 -31.4023 -7.37609 21.1244 -19.9381 41.2144 -3.18055e-015 0 3.18055e-015 3.18055e-015 0 -0 -1.57554e-006 -7.93111e-007 -2.23058e-006 -3.18055e-015 0 3.18055e-015 -0.0127942 0.00233076 9.27838e-005 -8.98793e-007 1.60933e-006 -2.74989e-006 -3.18055e-015 0 3.18055e-015 -0.0160285 0.00299465 0.000853868 -3.53113e-031 -3.18055e-015 -6.36111e-015 -3.18055e-015 0 3.18055e-015 -0.0126187 0.0031412 0.00284101 -2.47372e-006 3.53145e-006 -4.98077e-006 -3.18055e-015 0 3.18055e-015 3.18055e-015 0 -0 -1.57554e-006 -7.93111e-007 -2.23058e-006 3.71955 13.5521 32.922 -38.6529 31.5827 -21.0458 84.5065 -50.0935 54.7201 -30.7263 -18.4205 -25.0392 3.53113e-031 -1.27222e-014 1.59028e-015 2.18707e-007 -2.61166e-007 1.37719e-006 4.41391e-032 -3.18055e-015 7.95139e-016 3.53113e-031 -1.27222e-014 1.59028e-015 0.0129649 0.00231245 -9.01805e-005 -1.59028e-015 0 1.59028e-015 3.53113e-031 -1.27222e-014 1.59028e-015 0.0163311 0.00304048 -0.000871156 -1.59028e-015 -6.36111e-015 7.95139e-016 3.53113e-031 -1.27222e-014 1.59028e-015 0.0145801 0.00368642 -0.00325983 6.62086e-031 1.59028e-014 -2.38542e-015 3.53113e-031 -1.27222e-014 1.59028e-015 2.18707e-007 -2.61166e-007 1.37719e-006 4.41391e-032 -3.18055e-015 7.95139e-016 -60.0324 -17.2749 -22.0732 -178.965 86.5846 177.729 45.9376 36.2813 -53.3331 1.68967e-015 -1.96556e-006 2.38542e-015 60.0122 -17.2889 22.0487 179.259 86.58 -178.03 -45.9738 36.2646 53.3473 3.97569e-016 3.18055e-015 1.2921e-015 
1.63371 40.7564 0.818591 -1.49813e-007 32.6251 1.73071e-007 0.248395 -3.24619 -0.273638 0.482396 -6.49351 -0.534442 0.482397 -6.49352 -0.534443 7.19686 18.529 0.136321 1.02468 6.65142 9.28633 -22.525 -18.0145 -49.7846 38.3158 25.7801 -37.1934 -15.8999 -31.3964 -7.37396 21.0019 -19.9516 41.2641 2.16983e-006 -1.28003e-005 -8.59215e-006 2.9441e-006 -1.85045e-006 3.76905e-006 -2.9441e-006 1.85045e-006 -3.76905e-006 2.16983e-006 -1.28003e-005 -8.59215e-006 -0.0128202 0.00233229 8.39979e-005 3.35919e-006 3.78171e-006 -5.17366e-006 2.16983e-006 -1.28003e-005 -8.59215e-006 -0.0160624 0.00299081 0.000857936 4.21284e-006 2.28219e-005 4.58309e-006 2.16983e-006 -1.28003e-005 -8.59215e-006 -0.0125917 0.0031318 0.00282759 -1.57211e-006 3.00707e-006 -2.23215e-006 2.16983e-006 -1.28003e-005 -8.59215e-006 2.9441e-006 -1.85045e-006 3.76905e-006 -2.9441e-006 1.85045e-006 -3.76905e-006 3.71955 13.5521 32.922 -38.6529 31.5827 -21.0458 84.5064 -50.0935 54.72 -30.7263 -18.4205 -25.0392 1.59028e-015 0 3.18055e-015 1.59028e-015 3.18055e-015 1.59028e-015 7.95139e-016 -3.18055e-015 3.18055e-015 1.59028e-015 0 3.18055e-015 0.012949 0.00233861 -8.76725e-005 8.82781e-032 -3.18055e-015 1.59028e-015 1.59028e-015 0 3.18055e-015 0.0163405 0.00305714 -0.000874002 -1.32417e-031 -3.18055e-015 -2.38542e-015 1.59028e-015 0 3.18055e-015 0.0145368 0.00368324 -0.00325384 1.59028e-015 -6.36111e-015 7.95139e-016 1.59028e-015 0 3.18055e-015 1.59028e-015 3.18055e-015 1.59028e-015 7.95139e-016 -3.18055e-015 3.18055e-015 -59.9712 -17.7813 -22.1813 -178.87 86.3901 177.639 46.2992 36.1331 -53.5927 -4.09702e-006 -5.40006e-006 8.59818e-007 59.951 -17.7952 22.1566 179.146 86.3851 -177.922 -46.3352 36.1161 53.6064 -2.16215e-006 2.29445e-006 -8.91893e-006 
1.6337 40.8303 0.627096 -3.85467e-008 33.0005 -7.40562e-009 0.249036 -3.33626 -0.272989 0.483348 -6.67365 -0.532779 0.483349 -6.67367 -0.532781 7.51056 18.509 0.143665 1.01246 6.89743 9.35679 -22.6961 -17.9084 -49.8103 38.4863 25.7805 -37.2537 -15.8875 -31.4019 -7.37592 20.8793 -19.9651 41.3137 6.75547e-007 -2.73397e-006 -5.19782e-007 -7.06225e-031 6.36111e-015 6.36111e-015 -8.09683e-006 -1.71543e-005 -1.1076e-005 6.75547e-007 -2.73397e-006 -5.19782e-007 -0.0128547 0.00230705 7.64199e-005 2.92038e-006 1.28057e-006 1.1939e-006 6.75547e-007 -2.73397e-006 -5.19782e-007 -0.016005 0.00298587 0.000853825 4.10691e-006 -5.49782e-006 2.02801e-006 6.75547e-007 -2.73397e-006 -5.19782e-007 -0.0125759 0.00310694 0.00281412 4.23422e-006 9.29001e-006 1.98163e-006 6.75547e-007 -2.73397e-006 -5.19782e-007 -7.06225e-031 6.36111e-015 6.36111e-015 -8.09683e-006 -1.71543e-005 -1.1076e-005 3.71954 13.5521 32.922 -38.653 31.5826 -21.0458 84.5064 -50.0935 54.7199 -30.7263 -18.4205 -25.0392 7.95139e-016 -9.54166e-015 -7.95139e-016 -3.53113e-031 -1.27222e-014 -1.59028e-015 1.59028e-015 -1.59028e-014 -1.59028e-015 7.95139e-016 -9.54166e-015 -7.95139e-016 0.0129571 0.0023272 -8.12646e-005 -1.76556e-031 3.18055e-015 3.18055e-015 7.95139e-016 -9.54166e-015 -7.95139e-016 0.016326 0.00304079 -0.000869294 -1.59028e-015 3.18055e-015 2.38542e-015 7.95139e-016 -9.54166e-015 -7.95139e-016 0.014604 0.00368278 -0.00326723 7.95139e-016 3.18055e-015 1.59028e-015 7.95139e-016 -9.54166e-015 -7.95139e-016 -3.53113e-031 -1.27222e-014 -1.59028e-015 1.59028e-015 -1.59028e-014 -1.59028e-015 -59.9104 -18.2878 -22.289 -178.785 86.1952 177.557 46.6592 35.9833 -53.8503 2.16378e-006 4.22342e-006 8.91829e-006 59.8904 -18.3016 22.2643 179.046 86.19 -177.826 -46.6949 35.966 53.8637 -9.85762e-007 7.64571e-007 -1.39406e-006 
